<svg width="36" height="30" viewBox="0 0 36 30" fill="none" xmlns="http://www.w3.org/2000/svg">
<mask id="mask0_244_31" style="mask-type:luminance" maskUnits="userSpaceOnUse" x="0" y="0" width="36" height="30">
<path d="M35.1301 0H0V29.641H35.1301V0Z" fill="white"/>
</mask>
<g mask="url(#mask0_244_31)">
<path fill-rule="evenodd" clip-rule="evenodd" d="M19.7607 18.6634H30.0072C31.0205 18.6633 32.0109 18.3628 32.8534 17.7998C33.6959 17.2368 34.3525 16.4366 34.7402 15.5005C35.1279 14.5643 35.2293 13.5342 35.0316 12.5404C34.8339 11.5467 34.3459 10.6338 33.6294 9.91738C32.9129 9.20091 32 8.71304 31.0062 8.51538C30.0124 8.31778 28.9823 8.41924 28.0462 8.80704C27.1101 9.19478 26.31 9.85144 25.7471 10.694C25.1841 11.5364 24.8837 12.527 24.8837 13.5402C24.8827 14.8986 24.3427 16.2011 23.3822 17.1617C22.4217 18.1222 21.1192 18.6623 19.7607 18.6634Z" fill="#009EFF"/>
<path fill-rule="evenodd" clip-rule="evenodd" d="M2.92742 17.553C4.01062 18.2767 5.28413 18.6631 6.58688 18.6631C9.17308 18.6631 10.4999 18.6631 12.0761 18.6631L14.5882 16.151C13.6778 14.9957 13.175 13.5619 13.1738 12.0762C13.1738 10.7734 12.7875 9.49986 12.0637 8.41666C11.3399 7.33346 10.3112 6.4892 9.10761 5.99066C7.90401 5.49211 6.57961 5.36167 5.30186 5.61582C4.02412 5.86998 2.85046 6.49732 1.92926 7.41852C1.00807 8.33972 0.380722 9.51339 0.126568 10.7911C-0.127589 12.0689 0.00285415 13.3933 0.501402 14.5969C0.999949 15.8005 1.8442 16.8292 2.92742 17.553Z" fill="#2D00FF"/>
<path d="M19.7608 0C14.6072 0 10.4294 4.17782 10.4294 9.33146C10.4294 12.3279 11.8418 14.9945 14.0371 16.7018L23.0542 7.68472L17.6804 18.4301C17.7635 18.4491 17.8472 18.4669 17.9312 18.4836L20.6757 20.95L24.8172 17.1755C25.6888 16.6125 26.4606 15.9082 27.1001 15.095C28.348 13.5082 29.0923 11.5067 29.0923 9.33146C29.0923 4.17782 24.9144 0 19.7608 0Z" fill="#0053FF"/>
<path d="M12.0759 29.6412L25.8901 16.376L17.8395 18.1142L12.0759 29.6412Z" fill="#0053FF"/>
</g>
</svg>
